<svg width="143" height="143" viewBox="0 0 143 143" fill="none" xmlns="http://www.w3.org/2000/svg">
<path d="M71.5 0C32.0119 0 0 32.0119 0 71.5C0 110.988 32.0119 143 71.5 143C110.988 143 143 110.988 143 71.5C143 32.0119 110.988 0 71.5 0ZM54.9115 39C56.1882 38.9703 57.5516 39.2953 58.8385 40.0156L100.208 64.7292C102.463 66.081 104 68.5978 104 71.5C104 74.4023 102.463 76.8515 100.208 78.2033L58.8385 102.985C53.6908 105.866 47.7975 102.198 47.6667 96.1458V46.7865C47.7646 42.2472 51.0812 39.089 54.9115 39Z" fill="#830051"/>
</svg>
