<svg width="70" height="50" viewBox="0 0 70 50" fill="none" xmlns="http://www.w3.org/2000/svg">
<g clip-path="url(#clip0_2216_3234)">
<path d="M0 0H70V50H0V0Z" fill="#DBEC30"/>
<path d="M11.419 37.1129C11.313 36.6904 11.0655 35.8101 9.82811 35.8101C9.08569 35.8101 7.98973 36.3383 7.98973 38.3805C7.98973 39.6833 8.55539 40.8805 9.82811 40.8805C10.6766 40.8805 11.2423 40.3876 11.419 39.4721H12.9392C12.6564 41.0566 11.5958 42.1481 9.79276 42.1481C7.88367 42.1481 6.50488 40.8453 6.50488 38.3453C6.50488 35.8101 7.95438 34.5425 9.82811 34.5425C11.9847 34.5425 12.8685 36.0214 12.9392 37.1129H11.419ZM14.7776 38.627L16.5453 36.6199H18.2776L16.4039 38.6622L18.3483 41.9721H16.6513L15.3786 39.6833L14.7776 40.2819V41.9721H13.3635V36.6199H14.7776V38.627ZM23.4746 39.2608C23.4746 41.1974 22.1665 42.0777 20.7524 42.0777C19.3029 42.0777 17.9948 41.1974 17.9948 39.2608C17.9948 37.3242 19.3029 36.4439 20.7524 36.4439C22.1665 36.4791 23.4746 37.3594 23.4746 39.2608ZM19.4443 39.2608C19.4443 39.965 19.6564 40.9157 20.7524 40.9157C21.8483 40.9157 22.0251 39.965 22.0251 39.296C22.0251 38.5918 21.813 37.6763 20.7524 37.6763C19.6564 37.6411 19.4443 38.5918 19.4443 39.2608Z" fill="#666666"/>
<path d="M28.778 36.6199V41.972H27.3639V37.7467H25.8437V39.4016C25.8437 41.4439 25.2427 42.1129 24.2528 42.1129C24.0053 42.1129 23.6164 42.0777 23.4043 42.0072V40.9509C23.4397 40.9861 23.6164 40.9861 23.8285 40.9861C24.2528 40.9861 24.4649 40.7748 24.4649 39.1551V36.6199H28.778ZM30.8993 38.6269L32.6669 36.6199H34.3993L32.5255 38.6622L34.4346 41.972H32.773L31.4649 39.6833L30.8993 40.2819V41.972H29.4851V36.6199H30.8993V38.6269ZM39.5962 39.2608C39.5962 41.1974 38.2881 42.0777 36.874 42.0777C35.4245 42.0777 34.1164 41.1974 34.1164 39.2608C34.1164 37.3241 35.4245 36.4438 36.874 36.4438C38.2881 36.4791 39.5962 37.3593 39.5962 39.2608ZM35.5659 39.2608C35.5659 39.965 35.778 40.9157 36.874 40.9157C37.97 40.9157 38.1467 39.965 38.1467 39.296C38.1467 38.5917 37.9346 37.6762 36.874 37.6762C35.778 37.641 35.5659 38.5917 35.5659 39.2608Z" fill="#666666"/>
<path d="M40.0552 36.6195H42.4592C43.6612 36.6195 44.5451 37.1125 44.5451 37.9928C44.5451 38.6266 44.1208 39.0139 43.5552 39.1547C44.0855 39.2956 44.7218 39.6477 44.7218 40.4928C44.7218 41.4787 43.9794 41.9716 42.742 41.9716H40.0552V36.6195ZM41.434 38.7674H42.3532C42.8128 38.7674 43.1663 38.5913 43.1663 38.1688C43.1663 37.7463 42.8481 37.5702 42.3885 37.5702H41.4693V38.7674H41.434ZM41.434 40.9857H42.4592C42.9895 40.9857 43.3077 40.8097 43.3077 40.2815C43.3077 39.8237 42.9542 39.5773 42.4592 39.5773H41.434V40.9857ZM50.3431 39.2604C50.3431 41.197 49.035 42.0773 47.6208 42.0773C46.1713 42.0773 44.8633 41.197 44.8633 39.2604C44.8633 37.3237 46.1713 36.4435 47.6208 36.4435C49.035 36.4787 50.3431 37.3589 50.3431 39.2604ZM46.3128 39.2604C46.3128 39.9646 46.5249 40.9153 47.6208 40.9153C48.7168 40.9153 48.8936 39.9646 48.8936 39.2956C48.8936 38.5913 48.6814 37.6758 47.6208 37.6758C46.5249 37.6406 46.3128 38.5913 46.3128 39.2604ZM16.7218 33.3449C17.9239 33.3449 20.8582 33.1336 23.0855 31.5139V32.7463H27.54V27.3589L29.4138 25.4223L33.4441 32.7463H38.7824L32.6663 22.2885L38.641 15.704H33.1612L27.54 22.1829V9.78853H23.0855V11.7604C21.742 10.3167 19.5148 9.18994 16.0855 9.18994C8.66123 9.18994 7.28244 13.697 7.28244 16.2322C7.28244 19.7181 9.15618 21.6195 12.4087 22.4294L17.0047 23.5561C19.4441 24.1547 21.1764 24.6125 21.1764 26.4082C21.1764 28.8026 18.6309 29.366 16.3683 29.366C12.1966 29.366 11.4895 26.9364 11.4895 25.6336H6.89355C6.92891 28.4857 8.3784 33.3449 16.7218 33.3449ZM19.7622 19.6477L14.1764 18.3097C13.2218 18.0984 11.737 17.7111 11.737 15.9153C11.737 13.873 13.9289 13.1688 15.7319 13.1688C19.9037 13.1688 20.2925 15.5984 20.3986 16.6547H23.0501V20.9153C22.0956 20.3167 20.9643 19.9646 19.7622 19.6477Z" fill="#666666"/>
</g>
<defs>
<clipPath id="clip0_2216_3234">
<rect width="70" height="50" fill="white"/>
</clipPath>
</defs>
</svg>
